<svg version="1.1" id="Layer_1" xmlns="http://www.w3.org/2000/svg" x="0" y="0" viewBox="-82.8 0 290.3 512" style="enable-background:new -82.8 0 290.3 512" xml:space="preserve"><path d="M174.7 189.1c-5.5-5.9-11.8-11-18.7-15.5l-67 67c7.4 3.5 14.1 8.6 19.3 15.9 6.8 9.6 11.1 22.9 11.1 40.6v215l87.9-87.7V284.2c0-38.9-11.1-72.2-32.6-95.1zM89.6 155.7c-6.1 0-12.2.6-18.2 1.6L-82.8 311.5v37.1L108.8 157c-6.1-.8-12.5-1.3-19.2-1.3zM5.1 159.7V.7l-87.9 87.7v71.3h50.9l-50.9 50.9v37.1l87.9-87.9zM-44.4 512l49.5-49.5v-37.2L-81.5 512zM-82.8 449.5l87.9-87.9v-37.2l-87.9 87.9z"/></svg>