<?xml version="1.0" encoding="utf-8"?>
<!-- Generator: Adobe Illustrator 19.0.1, SVG Export Plug-In . SVG Version: 6.00 Build 0)  -->
<svg version="1.1" id="Layer_1" xmlns="http://www.w3.org/2000/svg" xmlns:xlink="http://www.w3.org/1999/xlink" x="0px" y="0px"
	 viewBox="0 0 308.5 512" style="enable-background:new 0 0 308.5 512;" xml:space="preserve">
<style type="text/css">
	.st0{fill:#FFFFFF;}
</style>
<path d="M273.8,168.5c-5.9-6.3-12.6-11.7-19.9-16.5l-71.2,71.2c7.8,3.7,15,9.1,20.5,16.9c7.3,10.2,11.8,24.3,11.8,43.1V512h93.5
	V269.7C308.5,228.4,296.7,193,273.8,168.5z"/>
<g>
	<path d="M183.4,133c-6.5,0-13,0.7-19.4,1.7L0,298.7v39.5l203.8-203.8C197.2,133.6,190.5,133,183.4,133z"/>
	<polygon points="93.5,137.3 93.5,0 0,0 0,137.3 54.1,137.3 0,191.4 0,230.9 93.5,137.4 	"/>
	<polygon points="40.8,512 93.5,459.3 93.5,419.8 1.3,512 	"/>
	<polygon points="0,445.5 93.5,352 93.5,312.5 0,406 	"/>
</g>
<g>
	<path class="st0" d="M182.8,223.3L182.8,223.3c6.8,3.3,13.1,7.9,18.3,14.1C195.9,231.1,189.6,226.5,182.8,223.3z"/>
	<polygon class="st0" points="0,137.4 0,191.5 54.1,137.4 	"/>
	<path class="st0" d="M164.1,134.6c-26,4.1-50.4,16.5-70.6,37.3v-34.4L0,230.9v67.8l164-164c0,0,0,0,0,0
		C164,134.7,164,134.6,164.1,134.6z"/>
	<polygon class="st0" points="0,512 1.3,512 93.5,419.9 93.5,352.1 0,445.5 	"/>
	<path class="st0" d="M201,237.5C201,237.4,201,237.4,201,237.5C201,237.4,201,237.4,201,237.5z"/>
	<path class="st0" d="M253.9,152.1C253.9,152.1,253.9,152.1,253.9,152.1C253.9,152.1,254,152.1,253.9,152.1
		C254,152.1,254,152.1,253.9,152.1C254,152.1,254,152.1,253.9,152.1c-14-9.1-30.7-15.3-50.1-17.8c0,0-0.1,0.1-0.1,0.1L0,338.2V406
		l93.5-93.5v-29.2c0-48.9,30.9-66.2,60.4-66.2c9.8,0,19.8,1.8,28.9,6.1L253.9,152.1C253.9,152.1,253.9,152.1,253.9,152.1z"/>
	<polygon class="st0" points="93.5,512 93.5,459.3 40.8,512 	"/>
</g>
</svg>
